<svg version="1.1" id="Capa_1" xmlns="http://www.w3.org/2000/svg" xmlns:xlink="http://www.w3.org/1999/xlink" x="0px" y="0px"
	 viewBox="0 0 512 512"  xml:space="preserve">
<g>
	<g>
		<g>
			<path d="M497,100.771H371.839l-65.114-59.788C292.851,28.245,274.836,21.229,256,21.229s-36.851,7.016-50.725,19.755
				l-65.114,59.787H15c-8.284,0-15,6.716-15,15v93.54c0,2.989,0.893,5.909,2.563,8.387l67.68,100.36
				c1.554,2.303,3.716,4.13,6.246,5.276c26.512,12.013,54.81,21.185,84.511,27.437v-35c0-24.813,20.187-45,45-45h100
				c24.813,0,45,20.187,45,45v35c29.701-6.252,57.998-15.424,84.511-27.437c2.53-1.146,4.692-2.973,6.246-5.276l67.68-100.36
				c1.671-2.478,2.563-5.398,2.563-8.387v-93.54C512,107.487,505.284,100.771,497,100.771z M184.517,100.771l41.047-37.689
				c17.352-15.933,43.52-15.93,60.871,0l41.048,37.689H184.517z"/>
			<path d="M447.893,350.659c-30.342,13.748-62.806,24.016-96.893,30.715v34.396c0,24.853-20.147,45-45,45H206
				c-24.853,0-45-20.147-45-45v-34.396c-34.088-6.699-66.551-16.967-96.892-30.714c-7.594-3.441-14.072-8.913-18.735-15.825
				L0,267.553v208.218c0,8.284,6.716,15,15,15h482c8.284,0,15-6.716,15-15V267.553l-45.37,67.278
				C461.964,341.747,455.486,347.219,447.893,350.659z"/>
			<path d="M306,430.771c8.284,0,15-6.716,15-15v-100c0-8.284-6.716-15-15-15H206c-8.284,0-15,6.716-15,15v100
				c0,8.284,6.716,15,15,15H306z M256,345.773c11.046,0,20,8.954,20,20c0,11.046-8.954,20-20,20c-11.046,0-20-8.954-20-20
				C236,354.727,244.954,345.773,256,345.773z"/>
		</g>
	</g>
</g>
<g>
</g>
<g>
</g>
<g>
</g>
<g>
</g>
<g>
</g>
<g>
</g>
<g>
</g>
<g>
</g>
<g>
</g>
<g>
</g>
<g>
</g>
<g>
</g>
<g>
</g>
<g>
</g>
<g>
</g>
</svg>
