<svg id="Capa_1"  height="512" viewBox="0 0 512 512" width="512" xmlns="http://www.w3.org/2000/svg"><g><path d="m60 28.602h30v48.734h-30z"/><path d="m120 28.602h30v48.734h-30z"/><path d="m0 28.602h30v48.734h-30z"/><path d="m180 28.602h332v48.734h-332z"/><path d="m211.386 196.506c1.466-4.555 2.999-8.687 4.58-12.473-41.069 14.813-71.663 51.736-77.33 96.333h59.73c1.094-31.504 5.616-60.852 13.02-83.86z"/><path d="m273.059 208.926c-7.228-24.163-15.04-31.101-17.059-31.838-2.019.737-9.831 7.674-17.059 31.837-5.901 19.727-9.554 44.679-10.553 71.442h55.224c-.999-26.762-4.652-51.714-10.553-71.441z"/><path d="m256 413.646c2.019-.737 9.831-7.675 17.059-31.838 5.901-19.727 9.554-44.679 10.553-71.441h-55.224c1 26.762 4.652 51.715 10.553 71.442 7.228 24.163 15.041 31.1 17.059 31.837z"/><path d="m313.635 280.367h59.73c-5.667-44.597-36.261-81.521-77.331-96.334 1.581 3.786 3.114 7.918 4.58 12.473 7.405 23.008 11.927 52.356 13.021 83.861z"/><path d="m0 483.398h512v-376.061h-512zm256-336.342c81.779 0 148.312 66.532 148.312 148.312s-66.532 148.311-148.312 148.311-148.312-66.532-148.312-148.312 66.533-148.311 148.312-148.311z"/><path d="m373.365 310.367h-59.73c-1.094 31.506-5.616 60.854-13.02 83.861-1.466 4.555-2.999 8.687-4.58 12.473 41.069-14.813 71.663-51.737 77.33-96.334z"/><path d="m215.966 406.701c-1.581-3.785-3.114-7.918-4.58-12.473-7.404-23.007-11.926-52.355-13.02-83.861h-59.73c5.667 44.597 36.261 81.521 77.33 96.334z"/></g></svg>